<svg width="96" height="190" viewBox="0 0 96 190" fill="none" xmlns="http://www.w3.org/2000/svg">
<path id="Arrow 3" d="M85.6592 1.15373C85.0734 0.567939 84.1236 0.567939 83.5379 1.15373L73.9919 10.6997C73.4061 11.2855 73.4061 12.2352 73.9919 12.821C74.5777 13.4068 75.5274 13.4068 76.1132 12.821L84.5985 4.33571L93.0838 12.821C93.6696 13.4068 94.6193 13.4068 95.2051 12.821C95.7909 12.2352 95.7909 11.2855 95.2051 10.6997L85.6592 1.15373ZM84.5985 187.629L84.5985 189.129C85.4269 189.129 86.0985 188.458 86.0985 187.629L84.5985 187.629ZM83.0985 2.21439L83.0985 187.629L86.0985 187.629L86.0985 2.21439L83.0985 2.21439ZM84.5985 186.129L0.660031 186.129L0.660026 189.129L84.5985 189.129L84.5985 186.129Z" fill="url(#paint0_linear_81_617)"/>
<defs>
<linearGradient id="paint0_linear_81_617" x1="98.4602" y1="1.04333" x2="-42.84" y2="53.7554" gradientUnits="userSpaceOnUse">
<stop stop-color="#FFE3F3"/>
<stop offset="1" stop-color="#504A4A"/>
</linearGradient>
</defs>
</svg>
