<svg width="98" height="185" viewBox="0 0 98 185" fill="none" xmlns="http://www.w3.org/2000/svg">
<path id="Arrow 2" d="M10.4969 184.275C11.0827 184.861 12.0325 184.861 12.6183 184.275L22.1642 174.729C22.75 174.143 22.75 173.194 22.1642 172.608C21.5784 172.022 20.6287 172.022 20.0429 172.608L11.5576 181.093L3.07232 172.608C2.48653 172.022 1.53677 172.022 0.950987 172.608C0.365195 173.194 0.365206 174.143 0.950985 174.729L10.4969 184.275ZM11.5576 1.90081L11.5576 0.400812C11.1598 0.400811 10.7782 0.558847 10.4969 0.840152C10.2156 1.12146 10.0576 1.50299 10.0576 1.90081L11.5576 1.90081ZM13.0576 183.214L13.0576 1.90081L10.0576 1.90081L10.0576 183.214L13.0576 183.214ZM11.5576 3.40081L97.4314 3.4009L97.4314 0.400897L11.5576 0.400812L11.5576 3.40081Z" fill="url(#paint0_linear_81_615)"/>
<defs>
<linearGradient id="paint0_linear_81_615" x1="61.8752" y1="78.2144" x2="96.9641" y2="2.07923" gradientUnits="userSpaceOnUse">
<stop stop-color="#FFE3F3"/>
<stop offset="1" stop-color="#504A4A"/>
</linearGradient>
</defs>
</svg>
