<svg width="134" height="40" viewBox="0 0 134 40" fill="none" xmlns="http://www.w3.org/2000/svg">
<path d="M20.2584 38.4051C23.807 38.4025 27.2752 37.3203 30.2243 35.2954C33.1735 33.2705 35.4712 30.3939 36.8269 27.0294C38.1826 23.6648 38.5354 19.9633 37.8407 16.393C37.146 12.8227 35.435 9.54392 32.924 6.97127C30.4131 4.39861 27.2149 2.6476 23.7341 1.9397C20.2532 1.23181 16.6459 1.5988 13.3683 2.99427C10.0907 4.38973 7.29 6.75101 5.3204 9.77949C3.3508 12.808 2.30073 16.3676 2.30298 20.0084C2.30447 22.4259 2.7701 24.8195 3.67327 27.0524C4.57644 29.2854 5.89947 31.3139 7.56681 33.0222C9.23414 34.7306 11.2131 36.0852 13.3908 37.0088C15.5684 37.9323 17.902 38.4068 20.2584 38.4051Z" fill="#EBEBEB"/>
<path d="M19.5369 11.9211V28.0711H24.5406V26.6178H20.9795V11.9194L19.5369 11.9211Z" fill="#2D2D2D"/>
<path d="M14.5241 16.3278C14.9501 16.3284 15.3668 16.1994 15.7213 15.957C16.0757 15.7146 16.3521 15.3697 16.5155 14.9661C16.6788 14.5624 16.7217 14.1181 16.6388 13.6894C16.5558 13.2608 16.3507 12.867 16.0495 12.5579C15.7482 12.2489 15.3644 12.0385 14.9465 11.9534C14.5286 11.8683 14.0956 11.9123 13.7021 12.0799C13.3086 12.2474 12.9725 12.531 12.7362 12.8947C12.4999 13.2583 12.3741 13.6857 12.3748 14.1228C12.3756 14.7073 12.6023 15.2677 13.0052 15.681C13.4081 16.0943 13.9543 16.3269 14.5241 16.3278Z" fill="#2D2D2D"/>
<path d="M20.9788 4.59393C20.7903 4.5856 20.4345 4.57227 20.264 4.57227C17.2913 4.57128 14.3851 5.47479 11.913 7.16845C9.44091 8.86211 7.51389 11.2698 6.37571 14.0872C5.23753 16.9045 4.93931 20.0049 5.51877 22.9961C6.09823 25.9874 7.52935 28.7351 9.63111 30.8918C11.7329 33.0486 14.4109 34.5174 17.3264 35.1125C20.2419 35.7077 23.2639 35.4024 26.0103 34.2353C28.7567 33.0682 31.104 31.0917 32.7554 28.5559C34.4068 26.02 35.288 23.0387 35.2877 19.9889V19.3073H24.5544V20.7256H33.8565V20.9473C33.6751 23.6639 32.7239 26.267 31.12 28.4366C29.516 30.6061 27.3292 32.2476 24.8282 33.1593C22.3272 34.0709 19.621 34.213 17.0423 33.568C14.4637 32.9231 12.1249 31.5193 10.3134 29.5291C8.50194 27.5389 7.29674 25.049 6.84595 22.3656C6.39515 19.6821 6.71841 16.922 7.77598 14.4245C8.83356 11.927 10.5794 9.80093 12.7988 8.30762C15.0183 6.8143 17.6147 6.01882 20.2688 6.01895C20.4313 6.01895 20.8082 6.01897 20.9836 6.02897L20.9788 4.59393Z" fill="#2D2D2D"/>
<path d="M51.7212 7.80799H46.3279V31.773H62.8977V27.1063H51.7212V7.80799ZM74.7663 22.6413H79.1524V26.8313C77.8941 27.2545 76.5778 27.4683 75.2536 27.4647C70.398 27.4647 68.7816 24.933 68.7816 19.798C68.7816 14.8947 70.3217 12.0063 75.1773 12.0063C76.2292 11.9159 77.2863 12.1007 78.2497 12.5435C79.2131 12.9863 80.0513 13.6725 80.6859 14.538L84.0389 11.3713C81.9953 8.37133 78.4116 7.45801 75.0603 7.45801C67.5064 7.45801 63.5394 11.6913 63.5394 19.7563C63.5394 27.783 67.1214 32.133 75.0229 32.133C78.2076 32.2362 81.3575 31.4283 84.1201 29.7997V18.173H74.7663V22.6413Z" fill="#EBEBEB"/>
<path d="M126.703 7.76322V1.72656H122.36V7.76322H116.622V12.0216H122.36V17.9882H126.703V12.0216H132.48V7.76322H126.703Z" fill="#EBEBEB"/>
<path d="M107.622 7.79102V21.6343C107.622 25.4677 105.77 27.3427 102.638 27.3427C99.5055 27.3427 97.6535 25.461 97.6535 21.6343V7.79102H92.3589V21.7193C92.3589 29.276 96.2774 32.1127 102.448 32.1127H102.826C109 32.1127 112.917 29.2793 112.917 21.7193V7.79264L107.622 7.79102Z" fill="#EBEBEB"/>
</svg>
